<?xml version="1.0" standalone="no"?><!DOCTYPE svg PUBLIC "-//W3C//DTD SVG 1.1//EN" "http://www.w3.org/Graphics/SVG/1.1/DTD/svg11.dtd"><svg t="1570973602209" class="icon" viewBox="0 0 1024 1024" version="1.1" xmlns="http://www.w3.org/2000/svg" p-id="3478" xmlns:xlink="http://www.w3.org/1999/xlink" width="200" height="200"><defs><style type="text/css"></style></defs><path d="M128 896v-213.333333a125.44 125.44 0 0 1 72.533333-107.52 834.986667 834.986667 0 0 1 622.506667 0A125.44 125.44 0 0 1 896 682.666667v213.333333a128 128 0 0 1-128 128H256a128 128 0 0 1-128-128zM512 0a213.333333 213.333333 0 1 0 213.333333 213.333333 213.333333 213.333333 0 0 0-213.333333-213.333333z" fill="#1296db" p-id="3479"></path><path d="M896 682.666667v213.333333a128 128 0 0 1-128 128H512V514.986667a834.56 834.56 0 0 1 311.466667 60.16A125.44 125.44 0 0 1 896 682.666667zM512 0v426.666667A213.333333 213.333333 0 1 0 512 0z" fill="#1296db" p-id="3480"></path></svg>