<?xml version="1.0" standalone="no"?><!DOCTYPE svg PUBLIC "-//W3C//DTD SVG 1.1//EN" "http://www.w3.org/Graphics/SVG/1.1/DTD/svg11.dtd"><svg t="1570972713122" class="icon" viewBox="0 0 1024 1024" version="1.1" xmlns="http://www.w3.org/2000/svg" p-id="3014" xmlns:xlink="http://www.w3.org/1999/xlink" width="200" height="200"><defs><style type="text/css"></style></defs><path d="M707.948092 727.684686a97.446471 97.446471 0 0 0-94.071702-25.732617l-68.339083 18.139386a97.446471 97.446471 0 0 1-98.71201-30.372926l-26.998156-31.216619A1072.333028 1072.333028 0 0 1 310.14713 506.215434l-21.09231-35.43508a97.446471 97.446471 0 0 1 0-102.930472l38.388004-59.480313A97.446471 97.446471 0 0 0 334.192363 210.923098L267.96251 84.369239a69.604622 69.604622 0 0 0-102.930471-18.139386L66.741875 136.678167C-31.548288 207.970174 30.041256 459.812353 203.841889 699.842838S597.846235 1076.129644 694.87086 1005.259483l98.712009-71.713853a69.604622 69.604622 0 0 0 14.764617-103.352318z" fill="#13227a" p-id="3015"></path><path d="M165.453885 64.964314a72.979392 72.979392 0 0 1 78.463392-5.905847 71.713853 71.713853 0 0 1 18.561233 21.514156l77.197854 150.599092c0 2.952923 0 5.905847 2.952923 8.85877a97.024625 97.024625 0 0 1-13.920925 69.182776l-20.670463 32.060311-182.237556-247.623717zM803.285332 835.255466L687.277628 717.138532a109.680011 109.680011 0 0 0-17.71754-13.499079 97.024625 97.024625 0 0 0-55.683698-2.531077l-35.013234 9.280616 181.393864 247.623717 34.591388-25.310772a77.197854 77.197854 0 0 0 25.310772-32.060311 72.557546 72.557546 0 0 0-16.873848-65.38616z" fill="#13227a" p-id="3016"></path><path d="M334.192363 210.923098a97.446471 97.446471 0 0 1-5.062154 97.446471l-8.85877 13.920924-177.175402-240.874177 22.357848-16.452002A69.604622 69.604622 0 0 1 267.96251 84.369239z m373.755729 515.49605a97.446471 97.446471 0 0 0-94.071702-25.732618l-13.077232 3.37477L779.240099 946.201015l17.71754-12.655385a69.604622 69.604622 0 0 0 14.764617-103.352318z m13.920924-268.716026a54.840005 54.840005 0 0 0 70.448315-32.482157 166.207401 166.207401 0 0 0-153.130169-222.734791 54.840005 54.840005 0 0 0 0 109.68001 56.52739 56.52739 0 0 1 52.308928 76.354162 54.840005 54.840005 0 0 0 30.372926 70.448314z m207.126482-299.088953A385.145576 385.145576 0 0 0 620.625929 0a54.840005 54.840005 0 0 0 0 109.680011 278.418489 278.418489 0 0 1 256.482487 375.443113 54.840005 54.840005 0 1 0 102.930472 37.966158 388.098499 388.098499 0 0 0-51.04339-363.209574z" fill="#13227a" p-id="3017"></path></svg>